<svg id="Groupe_1048" data-name="Groupe 1048" xmlns="http://www.w3.org/2000/svg" xmlns:xlink="http://www.w3.org/1999/xlink" width="30.601" height="27" viewBox="0 0 30.601 27">
  <defs>
    <clipPath id="clip-path">
      <rect id="Rectangle_432" data-name="Rectangle 432" width="30.601" height="27" fill="#8dd7f8"/>
    </clipPath>
  </defs>
  <g id="Groupe_1047" data-name="Groupe 1047" clip-path="url(#clip-path)">
    <path id="Tracé_659" data-name="Tracé 659" d="M7.118,13.326a.9.9,0,0,0,.8.134l6.034-1.865V15.13L7.816,17.008,0,11.324V8.081l7.116,5.244Zm17.633,4.05V13.7L30.6,11.86v3.66Zm0,1.889,5.85-1.856V19.35a.9.9,0,0,1-.637.861l-5.213,1.6Zm0-7.45V8.257L30.6,6.448V9.973Zm-18-6.9,6.373,5.049-5.307,1.64L1.092,6.65Zm2.091-.64,6.859-2.1,6.349,5.029-6.84,2.114Zm8.95-2.74,4.893-1.5a.9.9,0,0,1,.8.135L29.8,4.81,24.136,6.562ZM22.95,22.358l-7.2,2.2v-13.5l7.2-2.2ZM0,13.549l7.121,5.179a.9.9,0,0,0,.793.133l6.037-1.848v3.518L7.816,22.408,0,16.724Zm0,5.4,7.121,5.179a.9.9,0,0,0,.793.133l6.037-1.848v2.7L7.914,26.961a.9.9,0,0,1-.8-.135l-6.75-4.95A.9.9,0,0,1,0,21.15Z" transform="translate(0 0)" fill="#8dd7f8"/>
  </g>
</svg>
